<svg xmlns:xlink="http://www.w3.org/1999/xlink" xmlns="http://www.w3.org/2000/svg" aria-hidden="false" width="24" height="24" viewBox="0 0 24 24"><path d="M6.7 11H5C5 12.19 5.34 13.3 5.9 14.28L7.13 13.05C6.86 12.43 6.7 11.74 6.7 11Z" fill="#8E9297"></path><path d="M9.01 11.085C9.015 11.1125 9.02 11.14 9.02 11.17L15 5.18V5C15 3.34 13.66 2 12 2C10.34 2 9 3.34 9 5V11C9 11.03 9.005 11.0575 9.01 11.085Z" fill="#8E9297"></path><path d="M11.7237 16.0927L10.9632 16.8531L10.2533 17.5688C10.4978 17.633 10.747 17.6839 11 17.72V22H13V17.72C16.28 17.23 19 14.41 19 11H17.3C17.3 14 14.76 16.1 12 16.1C11.9076 16.1 11.8155 16.0975 11.7237 16.0927Z" fill="#8E9297"></path><path d="M21 4.27L19.73 3L3 19.73L4.27 21L8.46 16.82L9.69 15.58L11.35 13.92L14.99 10.28L21 4.27Z" fill="#8E9297"></path></svg>