<svg xmlns:xlink="http://www.w3.org/1999/xlink" xmlns="http://www.w3.org/2000/svg" class="icon-E4cW1l" aria-hidden="false" width="24" height="24" viewBox="0 0 24 24"><path fill="#B9BBBE" fill-rule="evenodd" clip-rule="evenodd" d="M5 2C3.34315 2 2 3.34315 2 5V19C2 20.6569 3.34315 22 5 22H19C20.6569 22 22 20.6569 22 19V5C22 3.34315 20.6569 2 19 2H5ZM8.79741 7.72V16H6.74541V7.72H8.79741ZM13.2097 7.72C16.0897 7.72 17.5897 9.388 17.5897 11.848C17.5897 14.308 16.0537 16 13.2577 16H10.3537V7.72H13.2097ZM13.1497 14.404C14.6137 14.404 15.5257 13.636 15.5257 11.86C15.5257 10.12 14.5537 9.316 13.1497 9.316H12.4057V14.404H13.1497Z"></path></svg>