<svg xmlns:xlink="http://www.w3.org/1999/xlink" fill="none" height="96" viewBox="0 0 72 96" width="72" xmlns="http://www.w3.org/2000/svg"><path d="m72 29.3v60.3c0 2.24 0 3.36-.44 4.22-.38.74-1 1.36-1.74 1.74-.86.44-1.98.44-4.22.44h-59.2c-2.24 0-3.36 0-4.22-.44-.74-.38-1.36-1-1.74-1.74-.44-.86-.44-1.98-.44-4.22v-83.2c0-2.24 0-3.36.44-4.22.38-.74 1-1.36 1.74-1.74.86-.44 1.98-.44 4.22-.44h36.3c1.96 0 2.94 0 3.86.22.5.12.98.28 1.44.5v16.88c0 2.24 0 3.36.44 4.22.38.74 1 1.36 1.74 1.74.86.44 1.98.44 4.22.44h16.88c.22.46.38.94.5 1.44.22.92.22 1.9.22 3.86z" fill="#d3d6fd"/><path d="m68.26 20.26c1.38 1.38 2.06 2.06 2.56 2.88.18.28.32.56.46.86h-16.88c-2.24 0-3.36 0-4.22-.44-.74-.38-1.36-1-1.74-1.74-.44-.86-.44-1.98-.44-4.22v-16.880029c.3.14.58.28.86.459999.82.5 1.5 1.18 2.88 2.56z" fill="#939bf9"/><path clip-rule="evenodd" d="m23.7 40.46c.66-.28 1.32-.38 1.98-.42.62-.04 1.38-.04 2.26-.04h.06v4c-.96 0-1.58 0-2.04.02-.46.04-.64.08-.72.12-.48.2-.88.6-1.08 1.08-.04.1-.08.26-.12.72-.04.48-.04 1.1-.04 2.06v6.06c0 .88 0 1.64-.04 2.26-.06.66-.14 1.32-.42 1.98-.26.64-.64 1.2-1.1 1.7.46.5.84 1.06 1.1 1.7.28.66.38 1.32.42 1.98.04.62.04 1.38.04 2.26v6.06c0 .96 0 1.58.02 2.04.04.46.08.64.12.72.2.48.6.88 1.08 1.08.1.04.26.08.72.12.48.04 1.1.04 2.06.04v4h-.06c-.88 0-1.64 0-2.26-.04-.66-.06-1.32-.14-1.98-.42-1.46-.6-2.64-1.76-3.24-3.24-.28-.66-.38-1.32-.42-1.98-.04-.62-.04-1.38-.04-2.26v-6.06c0-.96 0-1.58-.02-2.04-.04-.46-.08-.64-.12-.72-.2-.48-.6-.88-1.08-1.08-.1-.04-.26-.08-.72-.12-.48-.04-1.1-.04-2.06-.04v-4c.96 0 1.58 0 2.04-.02.46-.04.64-.08.72-.12.48-.2.88-.58 1.08-1.08.04-.1.08-.26.12-.72.04-.48.04-1.1.04-2.06v-6.06c0-.88 0-1.64.04-2.26.06-.66.14-1.32.42-1.98.6-1.46 1.76-2.64 3.24-3.24zm29.52 17.38c.1.04.26.08.72.12.48.04 1.1.04 2.06.04v4c-.96 0-1.58 0-2.04.02-.46.04-.64.08-.72.12-.48.2-.88.6-1.08 1.08-.04.1-.08.26-.12.72-.04.48-.04 1.1-.04 2.06v6.06c0 .88 0 1.64-.04 2.26-.06.66-.14 1.32-.42 1.98-.6 1.46-1.78 2.64-3.24 3.24-.66.28-1.32.38-1.98.42-.62.04-1.38.04-2.26.04h-.06v-4c.96 0 1.58 0 2.04-.02.46-.04.64-.08.72-.12.48-.2.88-.58 1.08-1.08.04-.1.08-.26.12-.72.04-.48.04-1.1.04-2.06v-6.06c0-.88 0-1.64.04-2.26.06-.66.16-1.32.42-1.98.26-.64.64-1.2 1.1-1.7-.46-.5-.84-1.06-1.1-1.7-.28-.66-.38-1.32-.42-1.98-.04-.62-.04-1.38-.04-2.26v-6.06c0-.96 0-1.58-.02-2.04-.04-.46-.08-.64-.12-.72-.2-.48-.6-.88-1.08-1.08-.1-.04-.26-.08-.72-.12-.48-.04-1.1-.04-2.06-.04v-4h.06c.88 0 1.64 0 2.26.04.66.06 1.32.14 1.98.42 1.46.6 2.64 1.76 3.24 3.24.28.66.38 1.32.42 1.98.04.62.04 1.38.04 2.26v6.06c0 .96 0 1.58.02 2.04.04.46.08.64.12.72.2.48.6.88 1.08 1.08z" fill="#5865f2" fill-rule="evenodd"/></svg>