<svg xmlns:xlink="http://www.w3.org/1999/xlink" xmlns="http://www.w3.org/2000/svg" aria-hidden="false" width="24" height="24" viewBox="0 0 24 24"><path d="M6.16204 15.0065C6.10859 15.0022 6.05455 15 6 15H4V12C4 7.588 7.589 4 12 4C13.4809 4 14.8691 4.40439 16.0599 5.10859L17.5102 3.65835C15.9292 2.61064 14.0346 2 12 2C6.486 2 2 6.485 2 12V19.1685L6.16204 15.0065Z" fill="#8E9297"></path><path d="M19.725 9.91686C19.9043 10.5813 20 11.2796 20 12V15H18C16.896 15 16 15.896 16 17V20C16 21.104 16.896 22 18 22H20C21.105 22 22 21.104 22 20V12C22 10.7075 21.7536 9.47149 21.3053 8.33658L19.725 9.91686Z" fill="#8E9297"></path><path d="M3.20101 23.6243L1.7868 22.2101L21.5858 2.41113L23 3.82535L3.20101 23.6243Z" fill="#8E9297"></path></svg>