<svg xmlns:xlink="http://www.w3.org/1999/xlink" xmlns="http://www.w3.org/2000/svg" width="24" height="24" viewBox="0 0 24 24" class="icon-1DeIlz"><path fill="#8E9297" fill-rule="evenodd" clip-rule="evenodd" d="M15 12C15 12.0007 15 12.0013 15 12.002C15 12.553 14.551 13.002 14 13.002V15.002C15.654 15.002 17 13.657 17 12.002C17 12.0013 17 12.0007 17 12H15ZM19 12C19 12.0007 19 12.0013 19 12.002C19 14.759 16.757 17.002 14 17.002V19.002C17.86 19.002 21 15.863 21 12.002C21 12.0013 21 12.0007 21 12H19ZM10.293 3.29604C10.579 3.01004 11.009 2.92504 11.383 3.07904C11.757 3.23204 12 3.59904 12 4.00204V20.002C12 20.407 11.757 20.772 11.383 20.927C11.009 21.082 10.579 20.996 10.293 20.71L6 16.002H3C2.45 16.002 2 15.552 2 15.002V9.00204C2 8.45304 2.45 8.00204 3 8.00204H6L10.293 3.29604Z"></path><path fill="#8E9297" d="M21.025 5V4C21.025 2.88 20.05 2 19 2C17.95 2 17 2.88 17 4V5C16.4477 5 16 5.44772 16 6V9C16 9.55228 16.4477 10 17 10H19H21C21.5523 10 22 9.55228 22 9V5.975C22 5.43652 21.5635 5 21.025 5ZM20 5H18V4C18 3.42857 18.4667 3 19 3C19.5333 3 20 3.42857 20 4V5Z"></path></svg>